<?xml version="1.0" encoding="UTF-8" standalone="no"?>
<!-- Created with Inkscape (http://www.inkscape.org/) -->

<svg
   xmlns:dc="http://purl.org/dc/elements/1.1/"
   xmlns:cc="http://creativecommons.org/ns#"
   xmlns:rdf="http://www.w3.org/1999/02/22-rdf-syntax-ns#"
   xmlns:svg="http://www.w3.org/2000/svg"
   xmlns="http://www.w3.org/2000/svg"
   xmlns:sodipodi="http://sodipodi.sourceforge.net/DTD/sodipodi-0.dtd"
   xmlns:inkscape="http://www.inkscape.org/namespaces/inkscape"
   width="210mm"
   height="297mm"
   viewBox="0 0 210 297"
   version="1.1"
   id="svg8"
   inkscape:version="0.92.4 (5da689c313, 2019-01-14)"
   sodipodi:docname="logo.svg">
  <defs
     id="defs2" />
  <sodipodi:namedview
     id="base"
     pagecolor="#ffffff"
     bordercolor="#666666"
     borderopacity="1.0"
     inkscape:pageopacity="0.0"
     inkscape:pageshadow="2"
     inkscape:zoom="0.98994949"
     inkscape:cx="366.81472"
     inkscape:cy="763.31232"
     inkscape:document-units="mm"
     inkscape:current-layer="layer1"
     showgrid="false"
     inkscape:window-width="1920"
     inkscape:window-height="1001"
     inkscape:window-x="-9"
     inkscape:window-y="-9"
     inkscape:window-maximized="1" />
  <metadata
     id="metadata5">
    <rdf:RDF>
      <cc:Work
         rdf:about="">
        <dc:format>image/svg+xml</dc:format>
        <dc:type
           rdf:resource="http://purl.org/dc/dcmitype/StillImage" />
        <dc:title></dc:title>
      </cc:Work>
    </rdf:RDF>
  </metadata>
  <g
     inkscape:label="Camada 1"
     inkscape:groupmode="layer"
     id="layer1">
    <path
       inkscape:connector-curvature="0"
       id="path147"
       d="m 136.57981,139.17769 c -0.026,-0.0694 -0.0587,-2.44228 -0.0725,-5.2731 l -0.0252,-5.14694 -1.26151,-0.0505 -1.26152,-0.0505 v -0.80736 -0.80736 l 1.69072,-0.0277 c 1.96851,-0.0323 2.1928,0.0318 2.5032,0.71557 0.17933,0.39498 0.19184,0.72258 0.19392,5.079 0.002,4.15196 0.0195,4.66342 0.16185,4.71803 0.0878,0.0337 0.62368,0.0612 1.19086,0.0612 0.66751,0 1.07394,0.0427 1.15233,0.1211 0.0666,0.0666 0.12111,0.38127 0.12111,0.69923 0,0.90519 0.0257,0.89531 -2.33155,0.89531 -1.51898,0 -2.02601,-0.0311 -2.06168,-0.12615 z"
       style="fill:#cccccc;stroke-width:0.10092054"
       sodipodi:nodetypes="cscccccccccsssscc"
       inkscape:export-xdpi="200.87239"
       inkscape:export-ydpi="200.87239" />
    <path
       style="fill:#666666;stroke-width:0.05002713"
       d="m 34.18051,27.128154 c -0.918164,-0.914936 -0.996111,-1.006497 -1.022153,-1.200658 -0.0155,-0.115595 -0.03818,-0.210178 -0.05038,-0.210178 -0.0122,0 -0.177449,0.09224 -0.367212,0.204976 -0.494127,0.293553 -1.019782,0.449348 -1.62557,0.481792 -1.881614,0.100786 -3.473278,-1.156651 -3.809486,-3.009537 -0.136653,-0.753107 -0.0209,-1.517263 0.345288,-2.279454 0.170177,-0.354204 0.284189,-0.504975 0.684856,-0.905647 0.400668,-0.400662 0.551437,-0.514676 0.905646,-0.684859 1.204517,-0.578695 2.445257,-0.52797 3.588852,0.14672 0.339445,0.200261 0.873846,0.723011 1.123266,1.098779 0.742019,1.1179 0.780898,2.689864 0.09508,3.84427 -0.112737,0.189764 -0.204976,0.355017 -0.204976,0.367217 0,0.01216 0.09458,0.0349 0.210187,0.05033 0.19422,0.02601 0.28594,0.10421 1.207521,1.029053 0.970315,0.973735 0.996471,1.005347 0.965337,1.16654 -0.04595,0.237916 -0.713662,0.891071 -0.910925,0.891071 -0.116906,0 -0.313339,-0.171372 -1.135328,-0.990463 z m -2.644287,-2.205471 c 0.417128,-0.129825 0.688281,-0.299045 0.989459,-0.617492 0.416087,-0.439955 0.617656,-0.945837 0.617656,-1.550138 0,-1.087776 -0.808486,-2.013752 -1.925278,-2.20505 -0.911333,-0.156104 -1.934794,0.386301 -2.33249,1.236162 -0.310255,0.662996 -0.311706,1.292996 -0.0045,1.949509 0.466234,0.996318 1.616117,1.510386 2.655138,1.187009 z m -5.587039,2.470537 c 9.36e-4,-0.08251 0.01224,-0.110253 0.02491,-0.06156 0.01269,0.04865 0.01185,0.116212 -0.0019,0.150078 -0.01371,0.03387 -0.02408,-0.0056 -0.02306,-0.0885 z"
       id="path21"
       inkscape:connector-curvature="0"
       inkscape:export-xdpi="200.87239"
       inkscape:export-ydpi="200.87239" />
    <text
       xml:space="preserve"
       style="font-style:normal;font-weight:normal;font-size:11.42048264px;line-height:1.25;font-family:sans-serif;letter-spacing:0px;word-spacing:0px;fill:#666666;fill-opacity:1;stroke:none;stroke-width:0.28551206"
       x="35.99332"
       y="27.709318"
       id="text25"
       inkscape:export-xdpi="200.87239"
       inkscape:export-ydpi="200.87239"><tspan
         sodipodi:role="line"
         id="tspan23"
         x="35.99332"
         y="27.709318"
         style="font-style:normal;font-variant:normal;font-weight:normal;font-stretch:normal;font-family:'Arial Rounded MT Bold';-inkscape-font-specification:'Arial Rounded MT Bold, ';fill:#666666;stroke-width:0.28551206">busqueitor</tspan></text>
    <path
       inkscape:connector-curvature="0"
       id="path27"
       d="m 31.656675,59.908146 c -0.918164,-0.914927 -0.996111,-1.006497 -1.022152,-1.200649 -0.0155,-0.115604 -0.03818,-0.210187 -0.05038,-0.210187 -0.0122,0 -0.177449,0.09224 -0.367212,0.204976 -0.494126,0.293553 -1.019782,0.449357 -1.62557,0.481802 -1.881613,0.100776 -3.473278,-1.156651 -3.809486,-3.009547 -0.136653,-0.753107 -0.0209,-1.517263 0.345288,-2.279454 0.170177,-0.354204 0.28419,-0.504975 0.684857,-0.905647 0.400668,-0.400662 0.551435,-0.514676 0.905645,-0.684859 1.204517,-0.578695 2.445257,-0.52797 3.588852,0.14672 0.339445,0.200261 0.873846,0.72302 1.123266,1.098779 0.742019,1.1179 0.780898,2.689864 0.09508,3.844279 -0.112737,0.189764 -0.204975,0.355008 -0.204975,0.367208 0,0.01216 0.09458,0.03489 0.210186,0.05042 0.19422,0.02601 0.28594,0.104209 1.207521,1.029044 0.970316,0.973734 0.996471,1.005346 0.965338,1.166539 -0.04595,0.237916 -0.713662,0.891071 -0.910926,0.891071 -0.116906,0 -0.313338,-0.171362 -1.135328,-0.990462 z m -2.644287,-2.205462 c 0.417129,-0.129825 0.688281,-0.299054 0.989459,-0.617501 0.416087,-0.439946 0.617656,-0.945828 0.617656,-1.550128 0,-1.087786 -0.808486,-2.013762 -1.925278,-2.20506 -0.911333,-0.156104 -1.934794,0.386311 -2.33249,1.236162 -0.310255,0.662996 -0.311705,1.293005 -0.0045,1.949518 0.466234,0.996318 1.616117,1.510387 2.655138,1.187009 z m -5.587039,2.470537 c 9.36e-4,-0.08251 0.01224,-0.110262 0.02491,-0.06156 0.01269,0.04865 0.01185,0.116203 -0.0019,0.150069 -0.01371,0.03387 -0.02408,-0.0056 -0.02306,-0.0885 z"
       style="fill:#666666;stroke-width:0.05002713"
       inkscape:export-xdpi="200.87239"
       inkscape:export-ydpi="200.87239" />
    <text
       id="text31"
       y="60.454819"
       x="33.341839"
       style="font-style:normal;font-weight:normal;font-size:11.42048264px;line-height:1.25;font-family:sans-serif;letter-spacing:0px;word-spacing:0px;fill:#666666;fill-opacity:1;stroke:none;stroke-width:0.28551206"
       xml:space="preserve"
       inkscape:export-xdpi="200.87239"
       inkscape:export-ydpi="200.87239"><tspan
         style="font-style:normal;font-variant:normal;font-weight:normal;font-stretch:normal;font-family:'Arial Rounded MT Bold';-inkscape-font-specification:'Arial Rounded MT Bold, ';fill:#666666;stroke-width:0.28551206"
         y="60.454819"
         x="33.341839"
         id="tspan29"
         sodipodi:role="line">Busqueitor</tspan></text>
    <path
       style="fill:#666666;stroke-width:0.05002713"
       d="m 26.579939,88.761893 c 0.918164,-0.914927 0.996112,-1.006488 1.022153,-1.20065 0.0155,-0.115594 0.03818,-0.210187 0.05038,-0.210187 0.0122,0 0.177448,0.09224 0.367211,0.204977 0.494127,0.293552 1.019782,0.449357 1.62557,0.481801 1.881614,0.100785 3.473278,-1.156651 3.809487,-3.009538 0.136653,-0.753107 0.0209,-1.517272 -0.345289,-2.279453 -0.170177,-0.354213 -0.284189,-0.504984 -0.684856,-0.905647 -0.400668,-0.400671 -0.551436,-0.514685 -0.905645,-0.684859 -1.204518,-0.578705 -2.445257,-0.52798 -3.588852,0.14671 -0.339446,0.200261 -0.873847,0.723021 -1.123267,1.098788 -0.742019,1.117892 -0.780897,2.689856 -0.09508,3.84427 0.112736,0.189765 0.204975,0.355009 0.204975,0.367217 0,0.01216 -0.09458,0.0349 -0.210187,0.05033 -0.194219,0.02601 -0.28594,0.10421 -1.207521,1.029044 -0.970315,0.973744 -0.996471,1.005346 -0.965337,1.166549 0.04595,0.237907 0.713662,0.89107 0.910925,0.89107 0.116906,0 0.313338,-0.171371 1.135328,-0.990471 z m 2.644288,-2.205463 c -0.41713,-0.129824 -0.688282,-0.299044 -0.989459,-0.617491 -0.416088,-0.439955 -0.617657,-0.945837 -0.617657,-1.550138 0,-1.087777 0.808487,-2.013762 1.925279,-2.205051 0.911332,-0.156113 1.934793,0.386302 2.332489,1.236162 0.310255,0.662997 0.311706,1.292996 0.0045,1.949509 -0.466235,0.996319 -1.616118,1.510387 -2.655138,1.187009 z m 5.587038,2.470538 c -9.36e-4,-0.08252 -0.01224,-0.110253 -0.02491,-0.06156 -0.01269,0.04865 -0.01185,0.116213 0.0019,0.150079 0.01371,0.03387 0.02408,-0.0056 0.02306,-0.0885 z"
       id="path33"
       inkscape:connector-curvature="0"
       inkscape:export-xdpi="200.87239"
       inkscape:export-ydpi="200.87239" />
    <text
       xml:space="preserve"
       style="font-style:normal;font-weight:normal;font-size:11.42048264px;line-height:1.25;font-family:sans-serif;letter-spacing:0px;word-spacing:0px;fill:#666666;fill-opacity:1;stroke:none;stroke-width:0.28551206"
       x="33.428818"
       y="88.866074"
       id="text37"
       inkscape:export-xdpi="200.87239"
       inkscape:export-ydpi="200.87239"><tspan
         sodipodi:role="line"
         id="tspan35"
         x="33.428818"
         y="88.866074"
         style="font-style:normal;font-variant:normal;font-weight:normal;font-stretch:normal;font-family:'Arial Rounded MT Bold';-inkscape-font-specification:'Arial Rounded MT Bold, ';fill:#666666;stroke-width:0.28551206">Busqueitor</tspan></text>
    <path
       inkscape:connector-curvature="0"
       id="path39"
       d="m 78.806889,121.42073 c 0.918164,-0.91493 0.996113,-1.00649 1.022149,-1.20065 0.01553,-0.1156 0.03817,-0.2102 0.05042,-0.2102 0.01216,0 0.177444,0.0922 0.367208,0.20499 0.494132,0.29356 1.019782,0.44935 1.62557,0.4818 1.881617,0.10078 3.473283,-1.15666 3.809487,-3.00956 0.136654,-0.75311 0.02086,-1.51728 -0.345288,-2.27946 -0.170174,-0.35423 -0.284188,-0.505 -0.68486,-0.90566 -0.400662,-0.40067 -0.551433,-0.51468 -0.905637,-0.68486 -1.204522,-0.57871 -2.445259,-0.52799 -3.588859,0.14671 -0.33945,0.20026 -0.873848,0.72302 -1.123262,1.09879 -0.742021,1.1179 -0.780901,2.68988 -0.09508,3.8443 0.112732,0.18976 0.204967,0.35501 0.204967,0.36722 0,0.0122 -0.09457,0.0349 -0.210178,0.0503 -0.194227,0.026 -0.285947,0.10421 -1.207525,1.02905 -0.97032,0.97374 -0.996469,1.00536 -0.965334,1.16655 0.04594,0.23792 0.713655,0.89108 0.910923,0.89108 0.116904,0 0.313339,-0.17137 1.13533,-0.99048 z m 2.644285,-2.20548 c -0.417127,-0.12982 -0.688274,-0.29904 -0.989461,-0.61749 -0.416089,-0.43996 -0.61765,-0.94584 -0.61765,-1.55015 0,-1.08778 0.808481,-2.01378 1.925278,-2.20506 0.911335,-0.15612 1.934793,0.38631 2.33249,1.23617 0.310252,0.663 0.311702,1.293 0.0047,1.94952 -0.466234,0.99632 -1.616121,1.51039 -2.655146,1.18701 z m 5.587045,2.47056 c -8.42e-4,-0.0825 -0.01226,-0.11025 -0.02489,-0.0616 -0.01272,0.0486 -0.01188,0.11621 0.0019,0.15008 0.01366,0.0339 0.02404,-0.006 0.02311,-0.0885 z"
       style="fill:#666666;stroke-width:0.05002713"
       inkscape:export-xdpi="200.87239"
       inkscape:export-ydpi="200.87239" />
    <text
       id="text43"
       y="120.19569"
       x="28.413559"
       style="font-style:normal;font-weight:normal;font-size:11.42048264px;line-height:1.25;font-family:sans-serif;letter-spacing:0px;word-spacing:0px;fill:#666666;fill-opacity:1;stroke:none;stroke-width:0.28551206"
       xml:space="preserve"
       inkscape:export-xdpi="200.87239"
       inkscape:export-ydpi="200.87239"><tspan
         style="font-style:normal;font-variant:normal;font-weight:normal;font-stretch:normal;font-family:'Arial Rounded MT Bold';-inkscape-font-specification:'Arial Rounded MT Bold, ';fill:#666666;stroke-width:0.28551206"
         y="120.19569"
         x="28.413559"
         id="tspan41"
         sodipodi:role="line">Busqueit</tspan></text>
    <text
       xml:space="preserve"
       style="font-style:normal;font-weight:normal;font-size:11.42048264px;line-height:1.25;font-family:sans-serif;letter-spacing:0px;word-spacing:0px;fill:#666666;fill-opacity:1;stroke:none;stroke-width:0.28551206"
       x="85.795441"
       y="120.19569"
       id="text47"
       inkscape:export-xdpi="200.87239"
       inkscape:export-ydpi="200.87239"><tspan
         sodipodi:role="line"
         id="tspan45"
         x="85.795441"
         y="120.19569"
         style="font-style:normal;font-variant:normal;font-weight:normal;font-stretch:normal;font-family:'Arial Rounded MT Bold';-inkscape-font-specification:'Arial Rounded MT Bold, ';fill:#666666;stroke-width:0.28551206">r</tspan></text>
    <path
       style="fill:#666666;stroke-width:0.05002713"
       d="m 85.269263,147.09137 c -0.918164,-0.91493 -0.996113,-1.00649 -1.022149,-1.20065 -0.01553,-0.1156 -0.03817,-0.21019 -0.05043,-0.21019 -0.01216,0 -0.177444,0.0922 -0.367208,0.20498 -0.494132,0.29355 -1.019782,0.44935 -1.62557,0.4818 -1.881617,0.10078 -3.473283,-1.15665 -3.809487,-3.00954 -0.136654,-0.75311 -0.02086,-1.51727 0.345288,-2.27945 0.170174,-0.35422 0.284188,-0.50499 0.68486,-0.90565 0.400662,-0.40067 0.551433,-0.51469 0.905637,-0.68487 1.204522,-0.57869 2.445259,-0.52797 3.588859,0.14672 0.339441,0.20026 0.873847,0.72302 1.123262,1.09879 0.742021,1.11789 0.780901,2.68985 0.09508,3.84427 -0.112732,0.18976 -0.204976,0.35501 -0.204976,0.36722 0,0.0122 0.09458,0.0349 0.210187,0.0504 0.194218,0.026 0.285947,0.10421 1.207525,1.02905 0.97032,0.97374 0.996469,1.00534 0.965334,1.16654 -0.04594,0.23791 -0.713655,0.89107 -0.910923,0.89107 -0.116904,0 -0.313339,-0.17137 -1.13533,-0.99047 z m -2.644286,-2.20547 c 0.417128,-0.12982 0.688275,-0.29904 0.989462,-0.61749 0.416079,-0.43995 0.61765,-0.94583 0.61765,-1.55013 0,-1.08779 -0.808481,-2.01377 -1.925278,-2.20506 -0.911335,-0.15611 -1.934793,0.38631 -2.33249,1.23617 -0.310252,0.66299 -0.311702,1.29299 -0.0047,1.94951 0.466234,0.99631 1.616121,1.51038 2.655137,1.187 z m -5.587044,2.47054 c 8.42e-4,-0.0825 0.01226,-0.11025 0.02489,-0.0616 0.01272,0.0486 0.01188,0.11622 -0.0019,0.15008 -0.01366,0.0339 -0.02404,-0.006 -0.02311,-0.0885 z"
       id="path49"
       inkscape:connector-curvature="0"
       inkscape:export-xdpi="200.87239"
       inkscape:export-ydpi="200.87239" />
    <text
       xml:space="preserve"
       style="font-style:normal;font-weight:normal;font-size:11.42048264px;line-height:1.25;font-family:sans-serif;letter-spacing:0px;word-spacing:0px;fill:#666666;fill-opacity:1;stroke:none;stroke-width:0.28551206"
       x="28.698351"
       y="145.89992"
       id="text53"
       inkscape:export-xdpi="200.87239"
       inkscape:export-ydpi="200.87239"><tspan
         sodipodi:role="line"
         id="tspan51"
         x="28.698351"
         y="145.89992"
         style="font-style:normal;font-variant:normal;font-weight:normal;font-stretch:normal;font-family:'Arial Rounded MT Bold';-inkscape-font-specification:'Arial Rounded MT Bold, ';fill:#666666;stroke-width:0.28551206">Busqueit</tspan></text>
    <text
       id="text57"
       y="145.89992"
       x="86.080238"
       style="font-style:normal;font-weight:normal;font-size:11.42048264px;line-height:1.25;font-family:sans-serif;letter-spacing:0px;word-spacing:0px;fill:#666666;fill-opacity:1;stroke:none;stroke-width:0.28551206"
       xml:space="preserve"
       inkscape:export-xdpi="200.87239"
       inkscape:export-ydpi="200.87239"><tspan
         style="font-style:normal;font-variant:normal;font-weight:normal;font-stretch:normal;font-family:'Arial Rounded MT Bold';-inkscape-font-specification:'Arial Rounded MT Bold, ';fill:#666666;stroke-width:0.28551206"
         y="145.89992"
         x="86.080238"
         id="tspan55"
         sodipodi:role="line">r</tspan></text>
    <path
       inkscape:connector-curvature="0"
       id="path59"
       d="m 82.887675,172.64068 c -0.918164,-0.91493 -0.996113,-1.0065 -1.022148,-1.20065 -0.01553,-0.1156 -0.03817,-0.21019 -0.05043,-0.21019 -0.01216,0 -0.177443,0.0923 -0.367207,0.20498 -0.494132,0.29355 -1.019782,0.44936 -1.62557,0.4818 -1.881617,0.10079 -3.473283,-1.15665 -3.809487,-3.00954 -0.136654,-0.75311 -0.02086,-1.51727 0.345288,-2.27946 0.170174,-0.3542 0.284188,-0.50498 0.684859,-0.90565 0.400663,-0.40066 0.551434,-0.51467 0.905637,-0.68486 1.204523,-0.57869 2.445259,-0.52797 3.58886,0.14672 0.33944,0.20026 0.873847,0.72302 1.123261,1.09879 0.742021,1.11789 0.780902,2.68986 0.09508,3.84427 -0.112732,0.18977 -0.204976,0.35501 -0.204976,0.36721 0,0.0122 0.09458,0.0349 0.210187,0.0504 0.194217,0.026 0.285946,0.10421 1.207525,1.02905 0.97032,0.97374 0.996468,1.00534 0.965334,1.16654 -0.04594,0.23791 -0.713656,0.89108 -0.910923,0.89108 -0.116905,0 -0.31334,-0.17137 -1.13533,-0.99047 z m -2.644285,-2.20546 c 0.417128,-0.12983 0.688274,-0.29906 0.989461,-0.6175 0.41608,-0.43995 0.617651,-0.94583 0.617651,-1.55013 0,-1.08779 -0.808482,-2.01376 -1.925279,-2.20506 -0.911334,-0.15611 -1.934793,0.38631 -2.332489,1.23616 -0.310252,0.663 -0.311702,1.293 -0.0047,1.94952 0.466234,0.99632 1.616121,1.51038 2.655138,1.18701 z m -5.587044,2.47053 c 8.42e-4,-0.0825 0.01226,-0.11026 0.02489,-0.0616 0.01272,0.0486 0.01188,0.1162 -0.0019,0.15007 -0.01366,0.0339 -0.02404,-0.006 -0.02311,-0.0885 z"
       style="fill:#666666;stroke-width:0.05002713"
       inkscape:export-xdpi="200.87239"
       inkscape:export-ydpi="200.87239" />
    <text
       id="text63"
       y="171.44882"
       x="27.102053"
       style="font-style:normal;font-weight:normal;font-size:11.42048264px;line-height:1.25;font-family:sans-serif;letter-spacing:0px;word-spacing:0px;fill:#666666;fill-opacity:1;stroke:none;stroke-width:0.28551206"
       xml:space="preserve"
       inkscape:export-xdpi="200.87239"
       inkscape:export-ydpi="200.87239"><tspan
         style="font-style:normal;font-variant:normal;font-weight:normal;font-stretch:normal;font-family:'Arial Rounded MT Bold';-inkscape-font-specification:'Arial Rounded MT Bold, ';fill:#666666;stroke-width:0.28551206"
         y="171.44882"
         x="27.102053"
         id="tspan61"
         sodipodi:role="line">busqueit</tspan></text>
    <text
       xml:space="preserve"
       style="font-style:normal;font-weight:normal;font-size:11.42048264px;line-height:1.25;font-family:sans-serif;letter-spacing:0px;word-spacing:0px;fill:#666666;fill-opacity:1;stroke:none;stroke-width:0.28551206"
       x="83.604965"
       y="171.44882"
       id="text67"
       inkscape:export-xdpi="200.87239"
       inkscape:export-ydpi="200.87239"><tspan
         sodipodi:role="line"
         id="tspan65"
         x="83.604965"
         y="171.44882"
         style="font-style:normal;font-variant:normal;font-weight:normal;font-stretch:normal;font-family:'Arial Rounded MT Bold';-inkscape-font-specification:'Arial Rounded MT Bold, ';fill:#666666;stroke-width:0.28551206">r</tspan></text>
    <path
       style="fill:#666666;stroke-width:0.04573645"
       d="m 182.78413,28.261908 c 0.72685,-0.935941 0.78694,-1.027992 0.7881,-1.207086 7.4e-4,-0.106632 0.0103,-0.195036 0.0215,-0.196454 0.011,-0.0014 0.17159,0.06313 0.35673,0.143415 0.48207,0.20907 0.9768,0.289553 1.52993,0.248905 1.71807,-0.126248 3.01608,-1.450712 3.10665,-3.169959 0.0369,-0.698788 -0.15657,-1.378407 -0.57679,-2.027264 -0.19531,-0.301546 -0.31615,-0.425091 -0.72586,-0.742097 -0.40971,-0.317018 -0.55962,-0.402978 -0.90053,-0.516334 -1.1593,-0.385489 -2.27865,-0.195968 -3.23771,0.548181 -0.28469,0.220879 -0.70885,0.756778 -0.89158,1.126405 -0.54361,1.099632 -0.39705,2.52973 0.35844,3.497313 0.12419,0.159056 0.22696,0.298244 0.22837,0.309315 9.3e-4,0.01103 -0.0817,0.04259 -0.1848,0.06995 -0.17312,0.04605 -0.24726,0.127585 -0.97604,1.072901 -0.76735,0.995314 -0.78739,1.027007 -0.74051,1.169589 0.0691,0.21045 0.75027,0.72555 0.92917,0.702732 0.10601,-0.01352 0.26434,-0.19166 0.91504,-1.02957 z m 2.14296,-2.305974 c -0.39331,-0.06949 -0.65878,-0.191584 -0.96875,-0.445541 -0.42824,-0.350859 -0.66955,-0.786321 -0.73944,-1.334353 -0.12583,-0.986489 0.50025,-1.91977 1.49092,-2.222429 0.80844,-0.246994 1.79933,0.12653 2.25831,0.851253 0.35804,0.565375 0.43223,1.136544 0.22951,1.767472 -0.30758,0.957477 -1.29094,1.556687 -2.27063,1.383608 z m 5.35258,1.594232 c -0.0103,-0.07473 -0.0239,-0.09857 -0.0296,-0.05296 -0.006,0.04559 0.003,0.106771 0.0194,0.135848 0.0164,0.02913 0.0212,-0.0079 0.0107,-0.08293 z"
       id="path69"
       inkscape:connector-curvature="0"
       inkscape:transform-center-x="-0.38116343"
       inkscape:transform-center-y="0.94134777"
       inkscape:export-xdpi="200.87239"
       inkscape:export-ydpi="200.87239" />
    <text
       xml:space="preserve"
       style="font-style:normal;font-weight:normal;font-size:11.42048264px;line-height:1.25;font-family:sans-serif;letter-spacing:0px;word-spacing:0px;fill:#666666;fill-opacity:1;stroke:none;stroke-width:0.28551206"
       x="132.08475"
       y="26.941957"
       id="text73"
       inkscape:export-xdpi="200.87239"
       inkscape:export-ydpi="200.87239"><tspan
         sodipodi:role="line"
         id="tspan71"
         x="132.08475"
         y="26.941957"
         style="font-style:normal;font-variant:normal;font-weight:normal;font-stretch:normal;font-family:'Arial Rounded MT Bold';-inkscape-font-specification:'Arial Rounded MT Bold, ';fill:#666666;stroke-width:0.28551206">Busqueit</tspan></text>
    <text
       id="text77"
       y="26.941957"
       x="188.43718"
       style="font-style:normal;font-weight:normal;font-size:11.42048264px;line-height:1.25;font-family:sans-serif;letter-spacing:0px;word-spacing:0px;fill:#666666;fill-opacity:1;stroke:none;stroke-width:0.28551206"
       xml:space="preserve"
       inkscape:export-xdpi="200.87239"
       inkscape:export-ydpi="200.87239"><tspan
         style="font-style:normal;font-variant:normal;font-weight:normal;font-stretch:normal;font-family:'Arial Rounded MT Bold';-inkscape-font-specification:'Arial Rounded MT Bold, ';fill:#666666;stroke-width:0.28551206"
         y="26.941957"
         x="188.43718"
         id="tspan75"
         sodipodi:role="line">r</tspan></text>
    <text
       xml:space="preserve"
       style="font-style:normal;font-weight:normal;font-size:4.62051201px;line-height:1.25;font-family:sans-serif;letter-spacing:0px;word-spacing:0px;fill:#000000;fill-opacity:1;stroke:none;stroke-width:0.24752742"
       x="10.827087"
       y="27.162216"
       id="text81"
       inkscape:export-xdpi="200.87239"
       inkscape:export-ydpi="200.87239"><tspan
         sodipodi:role="line"
         id="tspan79"
         x="10.827087"
         y="27.162216"
         style="font-size:4.62051201px;stroke-width:0.24752742">1</tspan></text>
    <text
       id="text85"
       y="59.022541"
       x="8.1396484"
       style="font-style:normal;font-weight:normal;font-size:4.62051201px;line-height:1.25;font-family:sans-serif;letter-spacing:0px;word-spacing:0px;fill:#000000;fill-opacity:1;stroke:none;stroke-width:0.24752742"
       xml:space="preserve"
       inkscape:transform-center-x="0.17680543"
       inkscape:transform-center-y="-18.918169"
       inkscape:export-xdpi="200.87239"
       inkscape:export-ydpi="200.87239"><tspan
         style="font-size:4.62051201px;stroke-width:0.24752742"
         y="59.022541"
         x="8.1396484"
         id="tspan83"
         sodipodi:role="line">2</tspan></text>
    <text
       inkscape:transform-center-y="-18.918166"
       inkscape:transform-center-x="0.17680516"
       xml:space="preserve"
       style="font-style:normal;font-weight:normal;font-size:4.62051201px;line-height:1.25;font-family:sans-serif;letter-spacing:0px;word-spacing:0px;fill:#000000;fill-opacity:1;stroke:none;stroke-width:0.24752742"
       x="8.8468695"
       y="88.973366"
       id="text89"
       inkscape:export-xdpi="200.87239"
       inkscape:export-ydpi="200.87239"><tspan
         sodipodi:role="line"
         id="tspan87"
         x="8.8468695"
         y="88.973366"
         style="font-size:4.62051201px;stroke-width:0.24752742">3</tspan></text>
    <text
       id="text93"
       y="119.4546"
       x="7.6445942"
       style="font-style:normal;font-weight:normal;font-size:4.62051201px;line-height:1.25;font-family:sans-serif;letter-spacing:0px;word-spacing:0px;fill:#000000;fill-opacity:1;stroke:none;stroke-width:0.24752742"
       xml:space="preserve"
       inkscape:transform-center-x="0.17680527"
       inkscape:transform-center-y="-18.918165"
       inkscape:export-xdpi="200.87239"
       inkscape:export-ydpi="200.87239"><tspan
         style="font-size:4.62051201px;stroke-width:0.24752742"
         y="119.4546"
         x="7.6445942"
         id="tspan91"
         sodipodi:role="line">4</tspan></text>
    <text
       inkscape:transform-center-y="-18.918173"
       inkscape:transform-center-x="0.17680527"
       xml:space="preserve"
       style="font-style:normal;font-weight:normal;font-size:4.62051201px;line-height:1.25;font-family:sans-serif;letter-spacing:0px;word-spacing:0px;fill:#000000;fill-opacity:1;stroke:none;stroke-width:0.24752742"
       x="7.6445942"
       y="145.44464"
       id="text97"
       inkscape:export-xdpi="200.87239"
       inkscape:export-ydpi="200.87239"><tspan
         sodipodi:role="line"
         id="tspan95"
         x="7.6445942"
         y="145.44464"
         style="font-size:4.62051201px;stroke-width:0.24752742">5</tspan></text>
    <text
       id="text101"
       y="172.77855"
       x="7.7153163"
       style="font-style:normal;font-weight:normal;font-size:4.62051201px;line-height:1.25;font-family:sans-serif;letter-spacing:0px;word-spacing:0px;fill:#000000;fill-opacity:1;stroke:none;stroke-width:0.24752742"
       xml:space="preserve"
       inkscape:transform-center-x="0.1768052"
       inkscape:transform-center-y="-18.918166"
       inkscape:export-xdpi="200.87239"
       inkscape:export-ydpi="200.87239"><tspan
         style="font-size:4.62051201px;stroke-width:0.24752742"
         y="172.77855"
         x="7.7153163"
         id="tspan99"
         sodipodi:role="line">6</tspan></text>
    <text
       inkscape:transform-center-y="-18.918167"
       inkscape:transform-center-x="0.1768103"
       xml:space="preserve"
       style="font-style:normal;font-weight:normal;font-size:4.62051201px;line-height:1.25;font-family:sans-serif;letter-spacing:0px;word-spacing:0px;fill:#000000;fill-opacity:1;stroke:none;stroke-width:0.24752742"
       x="118.57224"
       y="26.384268"
       id="text105"
       inkscape:export-xdpi="200.87239"
       inkscape:export-ydpi="200.87239"><tspan
         sodipodi:role="line"
         id="tspan103"
         x="118.57224"
         y="26.384268"
         style="font-size:4.62051201px;stroke-width:0.24752742">7</tspan></text>
    <path
       style="fill:#666666;stroke-width:0.10009215"
       d="m 125.10445,65.640334 c -1.13515,0.114229 -2.17533,-0.483162 -2.69997,-1.550909 -0.42283,-0.860395 -0.42451,-1.365631 -0.008,-2.574457 0.0863,-0.250537 0.12727,-0.505087 0.0912,-0.565635 -0.036,-0.06044 -0.27935,-0.145803 -0.5407,-0.189521 -1.26086,-0.210842 -1.70417,-0.453193 -2.25883,-1.235124 -1.16361,-1.640379 -0.34943,-3.782431 1.59395,-4.193552 0.74513,-0.157601 1.49744,0.08504 2.39436,0.772435 1.21705,0.932711 0.67656,1.114748 5.87339,-1.978333 5.19983,-3.094877 4.78109,-2.704852 4.53545,-4.224294 -0.11175,-0.691222 -0.11238,-1.101398 -0.002,-1.52036 0.36577,-1.392322 1.88562,-2.241536 3.23125,-1.805473 0.82583,0.267666 1.05816,0.458085 1.53484,1.258231 0.59894,1.005571 0.62132,1.462412 0.13879,2.845079 -0.0744,0.21305 -0.10688,0.434978 -0.0722,0.493197 0.0346,0.05819 0.2452,0.135503 0.46793,0.171661 1.44546,0.235129 1.83642,0.472671 2.43463,1.478635 0.47603,0.800548 0.53266,1.09557 0.37412,1.949088 -0.25834,1.390722 -1.72952,2.321731 -3.12778,1.979334 -0.42083,-0.102629 -0.78098,-0.299166 -1.33528,-0.727006 -1.21843,-0.94043 -0.67595,-1.122513 -5.87579,1.972345 -5.19684,3.093091 -4.77908,2.704796 -4.53957,4.219327 0.10534,0.666074 0.10671,1.110202 0.005,1.517572 -0.25603,1.022392 -1.16041,1.801783 -2.21364,1.907723 z"
       id="path118"
       inkscape:connector-curvature="0"
       inkscape:transform-center-x="-6.883203"
       inkscape:transform-center-y="-8.9775479"
       inkscape:export-xdpi="200.87239"
       inkscape:export-ydpi="200.87239" />
    <text
       xml:space="preserve"
       style="font-style:normal;font-weight:normal;font-size:11.42048264px;line-height:1.25;font-family:sans-serif;letter-spacing:0px;word-spacing:0px;fill:#666666;fill-opacity:1;stroke:none;stroke-width:0.28551206"
       x="130.89796"
       y="66.204865"
       id="text122"
       inkscape:export-xdpi="200.87239"
       inkscape:export-ydpi="200.87239"><tspan
         sodipodi:role="line"
         id="tspan120"
         x="130.89796"
         y="66.204865"
         style="font-style:normal;font-variant:normal;font-weight:normal;font-stretch:normal;font-family:'Arial Rounded MT Bold';-inkscape-font-specification:'Arial Rounded MT Bold, ';fill:#666666;stroke-width:0.28551206">Busqueitor</tspan></text>
    <path
       inkscape:transform-center-y="-10.376825"
       inkscape:transform-center-x="-4.4839001"
       inkscape:connector-curvature="0"
       id="path124"
       d="m 126.38032,104.88085 c -1.07329,0.38688 -2.22753,0.0604 -2.9961,-0.84769 -0.6194,-0.73172 -0.7439,-1.22139 -0.63449,-2.49509 0.0226,-0.26398 6.1e-4,-0.52087 -0.0491,-0.57083 -0.0497,-0.0499 -0.30643,-0.0735 -0.57055,-0.0523 -1.27429,0.10214 -1.76323,-0.0251 -2.49142,-0.64867 -1.52762,-1.308122 -1.25886,-3.583872 0.52618,-4.455296 0.68443,-0.334099 1.47316,-0.281709 2.51033,0.1669 1.40736,0.608707 0.92737,0.916732 5.21588,-3.347407 4.29099,-4.266609 3.97968,-3.786454 3.37187,-5.200527 -0.27651,-0.643284 -0.37688,-1.04099 -0.37203,-1.474135 0.0162,-1.439482 1.28382,-2.632843 2.69511,-2.537138 0.86613,0.05875 1.13779,0.186967 1.79476,0.847157 0.82553,0.829709 0.95834,1.26739 0.82658,2.725892 -0.0203,0.224734 0.002,0.447916 0.05,0.495947 0.0478,0.04799 0.27079,0.07185 0.49564,0.05267 1.45924,-0.123481 1.89623,0.01188 2.72115,0.842105 0.65644,0.660742 0.78311,0.933132 0.83691,1.79958 0.0877,1.41179 -1.11291,2.67265 -2.55245,2.680612 -0.43316,0.0028 -0.8303,-0.100243 -1.47201,-0.380417 -1.41057,-0.615864 -0.92866,-0.924414 -5.21965,3.342176 -4.28853,4.264151 -3.97775,3.785912 -3.37708,5.196711 0.26416,0.62046 0.37351,1.05093 0.37362,1.47088 3.2e-4,1.05397 -0.68735,2.02992 -1.68318,2.38885 z"
       style="fill:#666666;stroke-width:0.10009215"
       inkscape:export-xdpi="200.87239"
       inkscape:export-ydpi="200.87239" />
    <text
       id="text128"
       y="103.79343"
       x="131.56978"
       style="font-style:normal;font-weight:normal;font-size:11.42048264px;line-height:1.25;font-family:sans-serif;letter-spacing:0px;word-spacing:0px;fill:#666666;fill-opacity:1;stroke:none;stroke-width:0.28551206"
       xml:space="preserve"
       inkscape:export-xdpi="200.87239"
       inkscape:export-ydpi="200.87239"><tspan
         style="font-style:normal;font-variant:normal;font-weight:normal;font-stretch:normal;font-family:'Arial Rounded MT Bold';-inkscape-font-specification:'Arial Rounded MT Bold, ';fill:#666666;stroke-width:0.28551206"
         y="103.79343"
         x="131.56978"
         id="tspan126"
         sodipodi:role="line">Busqueitor</tspan></text>
    <path
       style="fill:#666666;stroke-width:0.10092054"
       d="m 123.47154,139.14626 c -0.19335,-0.19335 -0.22175,-1.2537 -0.0384,-1.43696 0.0784,-0.0784 0.48482,-0.12111 1.15232,-0.12111 0.56718,0 1.10307,-0.0276 1.19087,-0.0612 0.1424,-0.0546 0.16071,-0.60183 0.16969,-5.07126 0.006,-2.7555 0.0407,-5.11944 0.0781,-5.2532 0.0374,-0.13377 0.18049,-0.32489 0.31793,-0.42472 0.23641,-0.1717 5.4894,-1.60279 5.88327,-1.60279 0.1018,0 0.31816,0.13307 0.48081,0.29572 l 0.29571,0.29571 -0.0259,6.74349 -0.0259,6.7435 -4.65935,0.0263 c -4.1364,0.0232 -4.67729,0.008 -4.81896,-0.13336 z m 7.56811,-6.30939 c 0.25159,-0.278 0.25159,-0.91693 0,-1.19493 -0.43461,-0.48024 -1.06696,-0.12616 -1.06696,0.59746 0,0.72362 0.63235,1.0777 1.06696,0.59747 z"
       id="path141"
       inkscape:connector-curvature="0"
       sodipodi:nodetypes="csscsccscccccccccsc"
       inkscape:export-xdpi="200.87239"
       inkscape:export-ydpi="200.87239" />
    <text
       xml:space="preserve"
       style="font-style:normal;font-weight:normal;font-size:12.17530537px;line-height:1.25;font-family:sans-serif;letter-spacing:0px;word-spacing:0px;fill:#666666;fill-opacity:1;stroke:none;stroke-width:0.30438262"
       x="132.40367"
       y="137.32626"
       id="text145"
       inkscape:export-xdpi="200.87239"
       inkscape:export-ydpi="200.87239"><tspan
         sodipodi:role="line"
         id="tspan143"
         x="132.40367"
         y="137.32626"
         style="font-style:normal;font-variant:normal;font-weight:normal;font-stretch:normal;font-family:'Arial Rounded MT Bold';-inkscape-font-specification:'Arial Rounded MT Bold, ';fill:#666666;stroke-width:0.30438262">Busqueitor</tspan></text>
    <path
       sodipodi:nodetypes="cscccccccccsssscc"
       style="fill:#cccccc;stroke-width:0.10092054"
       d="m 135.86619,169.90944 c -0.026,-0.0694 -0.0587,-2.44228 -0.0725,-5.2731 l -0.0253,-5.14695 -1.26151,-0.0504 -1.2615,-0.0504 v -0.80736 -0.80737 l 1.6907,-0.0277 c 1.96852,-0.0322 2.1928,0.0319 2.5032,0.71557 0.17934,0.395 0.19184,0.72258 0.19392,5.079 0.002,4.15197 0.0195,4.66342 0.16185,4.71805 0.0877,0.0337 0.62368,0.0612 1.19086,0.0612 0.66751,0 1.07394,0.0427 1.15234,0.1211 0.0666,0.0666 0.1211,0.38127 0.1211,0.69924 0,0.90517 0.0257,0.8953 -2.33155,0.8953 -1.51897,0 -2.02601,-0.0311 -2.06168,-0.12615 z"
       id="path149"
       inkscape:connector-curvature="0"
       inkscape:export-xdpi="200.87239"
       inkscape:export-ydpi="200.87239" />
    <path
       sodipodi:nodetypes="csscsccscccccccccsc"
       inkscape:connector-curvature="0"
       id="path151"
       d="m 122.75792,169.878 c -0.19335,-0.19335 -0.22175,-1.25369 -0.0384,-1.43695 0.0784,-0.0784 0.48482,-0.12111 1.15233,-0.12111 0.56717,0 1.10306,-0.0276 1.19086,-0.0612 0.14241,-0.0546 0.16072,-0.60184 0.1697,-5.07126 0.006,-2.7555 0.0407,-5.11943 0.0781,-5.2532 0.0374,-0.13376 0.1805,-0.32488 0.31794,-0.42471 0.23641,-0.17171 5.48941,-1.6028 5.88326,-1.6028 0.1018,0 0.31817,0.13307 0.48081,0.29571 l 0.29571,0.29572 -0.0259,6.74349 -0.0259,6.74349 -4.65936,0.0263 c -4.13639,0.0232 -4.67728,0.008 -4.81896,-0.13336 z m 7.56812,-6.30939 c 0.25158,-0.27799 0.25158,-0.91692 0,-1.19492 -0.43462,-0.48024 -1.06697,-0.12615 -1.06697,0.59746 0,0.72362 0.63235,1.07771 1.06697,0.59746 z"
       style="fill:#666666;stroke-width:0.10092054"
       inkscape:export-xdpi="200.87239"
       inkscape:export-ydpi="200.87239" />
    <text
       id="text155"
       y="168.05782"
       x="131.14786"
       style="font-style:normal;font-weight:normal;font-size:12.17530537px;line-height:1.25;font-family:sans-serif;letter-spacing:0px;word-spacing:0px;fill:#666666;fill-opacity:1;stroke:none;stroke-width:0.30438262"
       xml:space="preserve"
       inkscape:export-xdpi="200.87239"
       inkscape:export-ydpi="200.87239"><tspan
         style="font-style:normal;font-variant:normal;font-weight:normal;font-stretch:normal;font-family:'Arial Rounded MT Bold';-inkscape-font-specification:'Arial Rounded MT Bold, ';fill:#666666;stroke-width:0.30438262"
         y="168.05782"
         x="131.14786"
         id="tspan153"
         sodipodi:role="line">Busqueitor</tspan></text>
    <text
       id="text159"
       y="63.640297"
       x="110.82098"
       style="font-style:normal;font-weight:normal;font-size:4.62051201px;line-height:1.25;font-family:sans-serif;letter-spacing:0px;word-spacing:0px;fill:#000000;fill-opacity:1;stroke:none;stroke-width:0.24752742"
       xml:space="preserve"
       inkscape:transform-center-x="0.17680028"
       inkscape:transform-center-y="-18.918166"
       inkscape:export-xdpi="200.87239"
       inkscape:export-ydpi="200.87239"><tspan
         style="font-size:4.62051201px;stroke-width:0.24752742"
         y="63.640297"
         x="110.82098"
         id="tspan157"
         sodipodi:role="line">8</tspan></text>
    <text
       inkscape:transform-center-y="-18.918164"
       inkscape:transform-center-x="0.17681292"
       xml:space="preserve"
       style="font-style:normal;font-weight:normal;font-size:4.62051201px;line-height:1.25;font-family:sans-serif;letter-spacing:0px;word-spacing:0px;fill:#000000;fill-opacity:1;stroke:none;stroke-width:0.24752742"
       x="110.80087"
       y="97.580467"
       id="text163"
       inkscape:export-xdpi="200.87239"
       inkscape:export-ydpi="200.87239"><tspan
         sodipodi:role="line"
         id="tspan161"
         x="110.80087"
         y="97.580467"
         style="font-size:4.62051201px;stroke-width:0.24752742">9</tspan></text>
    <text
       id="text167"
       y="134.36652"
       x="113.3013"
       style="font-style:normal;font-weight:normal;font-size:4.62051201px;line-height:1.25;font-family:sans-serif;letter-spacing:0px;word-spacing:0px;fill:#000000;fill-opacity:1;stroke:none;stroke-width:0.24752742"
       xml:space="preserve"
       inkscape:transform-center-x="0.1768158"
       inkscape:transform-center-y="-18.918162"
       inkscape:export-xdpi="200.87239"
       inkscape:export-ydpi="200.87239"><tspan
         style="font-size:4.62051201px;stroke-width:0.24752742"
         y="134.36652"
         x="113.3013"
         id="tspan165"
         sodipodi:role="line">10</tspan></text>
    <text
       inkscape:transform-center-y="-18.91817"
       inkscape:transform-center-x="0.17680818"
       xml:space="preserve"
       style="font-style:normal;font-weight:normal;font-size:4.62051201px;line-height:1.25;font-family:sans-serif;letter-spacing:0px;word-spacing:0px;fill:#000000;fill-opacity:1;stroke:none;stroke-width:0.24752742"
       x="113.06635"
       y="166.07132"
       id="text171"
       inkscape:export-xdpi="200.87239"
       inkscape:export-ydpi="200.87239"><tspan
         sodipodi:role="line"
         id="tspan169"
         x="113.06635"
         y="166.07132"
         style="font-size:4.62051201px;stroke-width:0.24752742">11</tspan></text>
  </g>
</svg>
